<svg width="3663" height="2264" xmlns="http://www.w3.org/2000/svg" xmlns:xlink="http://www.w3.org/1999/xlink" overflow="hidden"><defs><clipPath id="clip0"><rect x="291" y="5482" width="3663" height="2264"/></clipPath><clipPath id="clip1"><rect x="292" y="5482" width="3661" height="2262"/></clipPath><clipPath id="clip2"><rect x="292" y="5482" width="3661" height="2262"/></clipPath><clipPath id="clip3"><rect x="292" y="5482" width="3661" height="2262"/></clipPath><clipPath id="clip4"><rect x="519" y="5658" width="2984" height="1834"/></clipPath><clipPath id="clip5"><rect x="519" y="5658" width="2984" height="1834"/></clipPath><clipPath id="clip6"><rect x="519" y="5658" width="2984" height="1834"/></clipPath><clipPath id="clip7"><rect x="519" y="5658" width="2984" height="1834"/></clipPath><clipPath id="clip8"><rect x="292" y="5482" width="3661" height="2262"/></clipPath><clipPath id="clip9"><rect x="292" y="5482" width="3661" height="2262"/></clipPath><clipPath id="clip10"><rect x="292" y="5482" width="3661" height="2262"/></clipPath><clipPath id="clip11"><rect x="292" y="5482" width="3661" height="2262"/></clipPath><clipPath id="clip12"><rect x="292" y="5482" width="3661" height="2262"/></clipPath><clipPath id="clip13"><rect x="292" y="5482" width="3661" height="2262"/></clipPath><clipPath id="clip14"><rect x="292" y="5482" width="3661" height="2262"/></clipPath><clipPath id="clip15"><rect x="292" y="5482" width="3661" height="2262"/></clipPath><clipPath id="clip16"><rect x="292" y="5482" width="3661" height="2262"/></clipPath><clipPath id="clip17"><rect x="292" y="5482" width="3661" height="2262"/></clipPath><clipPath id="clip18"><rect x="292" y="5482" width="3661" height="2262"/></clipPath><clipPath id="clip19"><rect x="292" y="5482" width="3661" height="2262"/></clipPath><clipPath id="clip20"><rect x="292" y="5482" width="3661" height="2262"/></clipPath><clipPath id="clip21"><rect x="292" y="5482" width="3661" height="2262"/></clipPath><clipPath id="clip22"><rect x="292" y="5482" width="3661" height="2262"/></clipPath><clipPath id="clip23"><rect x="292" y="5482" width="3661" height="2262"/></clipPath><clipPath id="clip24"><rect x="292" y="5482" width="3661" height="2262"/></clipPath><clipPath id="clip25"><rect x="292" y="5482" width="3661" height="2262"/></clipPath><clipPath id="clip26"><rect x="292" y="5482" width="3661" height="2262"/></clipPath><clipPath id="clip27"><rect x="292" y="5482" width="3661" height="2262"/></clipPath><clipPath id="clip28"><rect x="292" y="5482" width="3661" height="2262"/></clipPath><clipPath id="clip29"><rect x="292" y="5482" width="3661" height="2262"/></clipPath><clipPath id="clip30"><rect x="292" y="5482" width="3661" height="2262"/></clipPath><clipPath id="clip31"><rect x="292" y="5482" width="3661" height="2262"/></clipPath><clipPath id="clip32"><rect x="292" y="5482" width="3661" height="2262"/></clipPath><clipPath id="clip33"><rect x="292" y="5482" width="3661" height="2262"/></clipPath><clipPath id="clip34"><rect x="292" y="5482" width="3661" height="2262"/></clipPath><clipPath id="clip35"><rect x="292" y="5482" width="3661" height="2262"/></clipPath><clipPath id="clip36"><rect x="292" y="5482" width="3661" height="2262"/></clipPath><clipPath id="clip37"><rect x="292" y="5482" width="3661" height="2262"/></clipPath><clipPath id="clip38"><rect x="292" y="5482" width="3661" height="2262"/></clipPath></defs><g clip-path="url(#clip0)" transform="translate(-291 -5482)"><path d="M292 5528.83C292 5503.52 312.517 5483 337.826 5483L3907.17 5483C3932.48 5483 3953 5503.52 3953 5528.83L3953 7699.17C3953 7724.48 3932.48 7745 3907.17 7745L337.826 7745C312.517 7745 292 7724.48 292 7699.17Z" fill="#FFFFFF" fill-rule="evenodd"/><g clip-path="url(#clip1)"><rect x="519" y="5659" width="2981" height="1830" fill="#FFFFFF"/></g><g clip-path="url(#clip2)"><path d="M519 7428.24 3500 7428.24M519 7367.24 3500 7367.24M519 7306.24 3500 7306.24M519 7245.24 3500 7245.24M519 7123.23 3500 7123.23M519 7062.23 3500 7062.23M519 7001.23 3500 7001.23M519 6940.23 3500 6940.23M519 6818.22 3500 6818.22M519 6757.22 3500 6757.22M519 6696.22 3500 6696.22M519 6635.22 3500 6635.22M519 6513.21 3500 6513.21M519 6452.21 3500 6452.21M519 6391.21 3500 6391.21M519 6330.21 3500 6330.21M519 6208.2 3500 6208.2M519 6147.2 3500 6147.2M519 6086.2 3500 6086.2M519 6025.2 3500 6025.2M519 5903.19 3500 5903.19M519 5842.19 3500 5842.19M519 5781.19 3500 5781.19M519 5720.19 3500 5720.19" stroke="#CCCCCC" stroke-width="2.29167" stroke-linejoin="round" stroke-miterlimit="10" stroke-opacity="0" fill="none"/></g><g clip-path="url(#clip3)"><path d="M519 7184.24 3500 7184.24M519 6879.23 3500 6879.23M519 6574.22 3500 6574.22M519 6269.21 3500 6269.21M519 5964.2 3500 5964.2M519 5659 3500 5659" stroke="#B7B7B7" stroke-width="2.29167" stroke-linejoin="round" stroke-miterlimit="10" fill="none"/></g><g clip-path="url(#clip4)"><path d="M577.519 6286.71 654.522 6286.71 654.522 7489.5 577.519 7489.5ZM1002.53 5989.7 1080.54 5989.7 1080.54 7489.5 1002.53 7489.5ZM1428.55 5964.7 1506.55 5964.7 1506.55 7489.5 1428.55 7489.5ZM1854.56 5970.7 1931.56 5970.7 1931.56 7489.5 1854.56 7489.5ZM2280.57 5974.7 2357.58 5974.7 2357.58 7489.5 2280.57 7489.5ZM2706.59 5966.7 2783.59 5966.7 2783.59 7489.5 2706.59 7489.5ZM3131.6 5968.7 3209.61 5968.7 3209.61 7489.5 3131.6 7489.5Z" stroke="#000000" stroke-width="3.4375" stroke-linejoin="round" stroke-miterlimit="10" fill="#4285F4"/></g><g clip-path="url(#clip5)"><path d="M654.522 6206.7 731.524 6206.7 731.524 7489.5 654.522 7489.5ZM1080.54 5984.7 1157.54 5984.7 1157.54 7489.5 1080.54 7489.5ZM1506.55 5964.7 1583.55 5964.7 1583.55 7489.5 1506.55 7489.5ZM1931.56 5972.7 2009.57 5972.7 2009.57 7489.5 1931.56 7489.5ZM2357.58 5976.7 2435.58 5976.7 2435.58 7489.5 2357.58 7489.5ZM2783.59 5966.7 2860.59 5966.7 2860.59 7489.5 2783.59 7489.5ZM3209.61 5968.7 3286.61 5968.7 3286.61 7489.5 3209.61 7489.5Z" stroke="#000000" stroke-width="3.4375" stroke-linejoin="round" stroke-miterlimit="10" fill="#EA4335"/></g><g clip-path="url(#clip6)"><path d="M731.524 6164.7 809.527 6164.7 809.527 7489.5 731.524 7489.5ZM1157.54 5980.7 1235.54 5980.7 1235.54 7489.5 1157.54 7489.5ZM1583.55 5964.7 1660.55 5964.7 1660.55 7489.5 1583.55 7489.5ZM2009.57 5972.7 2086.57 5972.7 2086.57 7489.5 2009.57 7489.5ZM2435.58 5976.7 2512.58 5976.7 2512.58 7489.5 2435.58 7489.5ZM2860.59 5966.7 2938.6 5966.7 2938.6 7489.5 2860.59 7489.5ZM3286.61 5990.7 3364.61 5990.7 3364.61 7489.5 3286.61 7489.5Z" stroke="#000000" stroke-width="3.4375" stroke-linejoin="round" stroke-miterlimit="10" fill="#FBBC04"/></g><g clip-path="url(#clip7)"><path d="M809.527 6147.7 886.529 6147.7 886.529 7489.5 809.527 7489.5ZM1235.54 5978.7 1312.54 5978.7 1312.54 7489.5 1235.54 7489.5ZM1660.55 5964.7 1738.56 5964.7 1738.56 7489.5 1660.55 7489.5ZM2086.57 5972.7 2164.57 5972.7 2164.57 7489.5 2086.57 7489.5ZM2512.58 5976.7 2590.58 5976.7 2590.58 7489.5 2512.58 7489.5ZM2938.6 5966.7 3015.6 5966.7 3015.6 7489.5 2938.6 7489.5ZM3364.61 5970.7 3441.61 5970.7 3441.61 7489.5 3364.61 7489.5Z" stroke="#000000" stroke-width="3.4375" stroke-linejoin="round" stroke-miterlimit="10" fill="#34A853"/></g><g clip-path="url(#clip8)"><path d="M0 0 0.000360892 1830" stroke="#000000" stroke-width="2.29167" stroke-linejoin="round" stroke-miterlimit="10" fill="none" fill-rule="evenodd" transform="matrix(1 0 0 -1 519 7489)"/></g><g clip-path="url(#clip9)"><path d="M519 7489 3500 7489" stroke="#000000" stroke-width="2.29167" stroke-linejoin="round" stroke-miterlimit="10" fill="none" fill-rule="evenodd"/></g><g clip-path="url(#clip10)"><text font-family="Arial,Arial_MSFontService,sans-serif" font-weight="400" font-size="46" transform="matrix(1 0 0 1 454.162 7504)">0</text></g><g clip-path="url(#clip11)"><text font-family="Arial,Arial_MSFontService,sans-serif" font-weight="400" font-size="46" transform="matrix(1 0 0 1 415.937 7199)">0.2</text></g><g clip-path="url(#clip12)"><text font-family="Arial,Arial_MSFontService,sans-serif" font-weight="400" font-size="46" transform="matrix(1 0 0 1 415.937 6894)">0.4</text></g><g clip-path="url(#clip13)"><text font-family="Arial,Arial_MSFontService,sans-serif" font-weight="400" font-size="46" transform="matrix(1 0 0 1 415.937 6589)">0.6</text></g><g clip-path="url(#clip14)"><text font-family="Arial,Arial_MSFontService,sans-serif" font-weight="400" font-size="46" transform="matrix(1 0 0 1 415.937 6284)">0.8</text></g><g clip-path="url(#clip15)"><text font-family="Arial,Arial_MSFontService,sans-serif" font-weight="400" font-size="46" transform="matrix(1 0 0 1 454.162 5979)">1</text></g><g clip-path="url(#clip16)"><text font-family="Arial,Arial_MSFontService,sans-serif" font-weight="400" font-size="46" transform="matrix(1 0 0 1 415.937 5674)">1.2</text></g><g clip-path="url(#clip17)"><text font-family="Arial,Arial_MSFontService,sans-serif" font-weight="400" font-size="46" transform="matrix(1 0 0 1 570.251 7559)">Gaussian Naive</text></g><g clip-path="url(#clip18)"><text font-family="Arial,Arial_MSFontService,sans-serif" font-weight="400" font-size="46" transform="matrix(1 0 0 1 668.311 7612)">Bayes</text></g><g clip-path="url(#clip19)"><text font-family="Arial,Arial_MSFontService,sans-serif" font-weight="400" font-size="46" transform="matrix(1 0 0 1 1016.46 7559)">Decision Tree</text></g><g clip-path="url(#clip20)"><text font-family="Arial,Arial_MSFontService,sans-serif" font-weight="400" font-size="46" transform="matrix(1 0 0 1 1425.71 7559)">Random Forest</text></g><g clip-path="url(#clip21)"><text font-family="Arial,Arial_MSFontService,sans-serif" font-weight="400" font-size="46" transform="matrix(1 0 0 1 1856.59 7559)">Support Vector</text></g><g clip-path="url(#clip22)"><text font-family="Arial,Arial_MSFontService,sans-serif" font-weight="400" font-size="46" transform="matrix(1 0 0 1 1922.84 7612)">Machine</text></g><g clip-path="url(#clip23)"><text font-family="Arial,Arial_MSFontService,sans-serif" font-weight="400" font-size="46" transform="matrix(1 0 0 1 2235.31 7559)">Logistic Regression</text></g><g clip-path="url(#clip24)"><text font-family="Arial,Arial_MSFontService,sans-serif" font-weight="400" font-size="46" transform="matrix(1 0 0 1 2677.65 7559)">Gradient Boosting</text></g><g clip-path="url(#clip25)"><text font-family="Arial,Arial_MSFontService,sans-serif" font-weight="400" font-size="46" transform="matrix(1 0 0 1 2766.86 7612)">Classifier</text></g><g clip-path="url(#clip26)"><text font-family="Arial,Arial_MSFontService,sans-serif" font-weight="400" font-size="46" transform="matrix(1 0 0 1 3137.91 7559)">Artifical Neural</text></g><g clip-path="url(#clip27)"><text font-family="Arial,Arial_MSFontService,sans-serif" font-weight="400" font-size="46" transform="matrix(1 0 0 1 3202.86 7612)">Network</text></g><g clip-path="url(#clip28)"><text fill="#757575" font-family="Arial,Arial_MSFontService,sans-serif" font-weight="400" font-size="73" transform="matrix(1 0 0 1 1808.78 5586)">Phase 1 </text></g><g clip-path="url(#clip29)"><text fill="#757575" font-family="Arial,Arial_MSFontService,sans-serif" font-weight="400" font-size="73" transform="matrix(1 0 0 1 2098.26 5586)">-</text></g><g clip-path="url(#clip30)"><text fill="#757575" font-family="Arial,Arial_MSFontService,sans-serif" font-weight="400" font-size="73" transform="matrix(1 0 0 1 2143.06 5586)">accuracy</text></g><g clip-path="url(#clip31)"><rect x="3572.5" y="6547.5" width="23" height="23" stroke="#000000" stroke-width="3.4375" stroke-linejoin="round" stroke-miterlimit="10" fill="#4285F4"/></g><g clip-path="url(#clip32)"><text fill="#1A1A1A" font-family="Arial,Arial_MSFontService,sans-serif" font-weight="400" font-size="46" transform="matrix(1 0 0 1 3604.91 6574)">DoS/Normal=4</text></g><g clip-path="url(#clip33)"><rect x="3572.5" y="6625.5" width="23" height="23" stroke="#000000" stroke-width="3.4375" stroke-linejoin="round" stroke-miterlimit="10" fill="#EA4335"/></g><g clip-path="url(#clip34)"><text fill="#1A1A1A" font-family="Arial,Arial_MSFontService,sans-serif" font-weight="400" font-size="46" transform="matrix(1 0 0 1 3604.91 6652)">DoS/Normal=3</text></g><g clip-path="url(#clip35)"><rect x="3572.5" y="6704.5" width="23" height="23" stroke="#000000" stroke-width="3.4375" stroke-linejoin="round" stroke-miterlimit="10" fill="#FBBC04"/></g><g clip-path="url(#clip36)"><text fill="#1A1A1A" font-family="Arial,Arial_MSFontService,sans-serif" font-weight="400" font-size="46" transform="matrix(1 0 0 1 3604.91 6731)">DoS/Normal=2</text></g><g clip-path="url(#clip37)"><rect x="3572.5" y="6782.5" width="23" height="23" stroke="#000000" stroke-width="3.4375" stroke-linejoin="round" stroke-miterlimit="10" fill="#34A853"/></g><g clip-path="url(#clip38)"><text fill="#1A1A1A" font-family="Arial,Arial_MSFontService,sans-serif" font-weight="400" font-size="46" transform="matrix(1 0 0 1 3604.91 6809)">DoS/Normal=1</text></g><path d="M292 5528.83C292 5503.52 312.517 5483 337.826 5483L3907.17 5483C3932.48 5483 3953 5503.52 3953 5528.83L3953 7699.17C3953 7724.48 3932.48 7745 3907.17 7745L337.826 7745C312.517 7745 292 7724.48 292 7699.17Z" stroke="#898989" stroke-width="2.29167" stroke-linejoin="round" stroke-miterlimit="10" fill="none" fill-rule="evenodd"/></g></svg>