<svg width="3663" height="2264" xmlns="http://www.w3.org/2000/svg" xmlns:xlink="http://www.w3.org/1999/xlink" overflow="hidden"><defs><clipPath id="clip0"><rect x="10944" y="5564" width="3663" height="2264"/></clipPath><clipPath id="clip1"><rect x="10945" y="5565" width="3660" height="2262"/></clipPath><clipPath id="clip2"><rect x="10945" y="5565" width="3660" height="2262"/></clipPath><clipPath id="clip3"><rect x="10945" y="5565" width="3660" height="2262"/></clipPath><clipPath id="clip4"><rect x="11171" y="5741" width="2985" height="1834"/></clipPath><clipPath id="clip5"><rect x="11171" y="5741" width="2985" height="1834"/></clipPath><clipPath id="clip6"><rect x="11171" y="5741" width="2985" height="1834"/></clipPath><clipPath id="clip7"><rect x="11171" y="5741" width="2985" height="1834"/></clipPath><clipPath id="clip8"><rect x="10945" y="5565" width="3660" height="2262"/></clipPath><clipPath id="clip9"><rect x="10945" y="5565" width="3660" height="2262"/></clipPath><clipPath id="clip10"><rect x="10945" y="5565" width="3660" height="2262"/></clipPath><clipPath id="clip11"><rect x="10945" y="5565" width="3660" height="2262"/></clipPath><clipPath id="clip12"><rect x="10945" y="5565" width="3660" height="2262"/></clipPath><clipPath id="clip13"><rect x="10945" y="5565" width="3660" height="2262"/></clipPath><clipPath id="clip14"><rect x="10945" y="5565" width="3660" height="2262"/></clipPath><clipPath id="clip15"><rect x="10945" y="5565" width="3660" height="2262"/></clipPath><clipPath id="clip16"><rect x="10945" y="5565" width="3660" height="2262"/></clipPath><clipPath id="clip17"><rect x="10945" y="5565" width="3660" height="2262"/></clipPath><clipPath id="clip18"><rect x="10945" y="5565" width="3660" height="2262"/></clipPath><clipPath id="clip19"><rect x="10945" y="5565" width="3660" height="2262"/></clipPath><clipPath id="clip20"><rect x="10945" y="5565" width="3660" height="2262"/></clipPath><clipPath id="clip21"><rect x="10945" y="5565" width="3660" height="2262"/></clipPath><clipPath id="clip22"><rect x="10945" y="5565" width="3660" height="2262"/></clipPath><clipPath id="clip23"><rect x="10945" y="5565" width="3660" height="2262"/></clipPath><clipPath id="clip24"><rect x="10945" y="5565" width="3660" height="2262"/></clipPath><clipPath id="clip25"><rect x="10945" y="5565" width="3660" height="2262"/></clipPath><clipPath id="clip26"><rect x="10945" y="5565" width="3660" height="2262"/></clipPath><clipPath id="clip27"><rect x="10945" y="5565" width="3660" height="2262"/></clipPath><clipPath id="clip28"><rect x="10945" y="5565" width="3660" height="2262"/></clipPath><clipPath id="clip29"><rect x="10945" y="5565" width="3660" height="2262"/></clipPath><clipPath id="clip30"><rect x="10945" y="5565" width="3660" height="2262"/></clipPath><clipPath id="clip31"><rect x="10945" y="5565" width="3660" height="2262"/></clipPath><clipPath id="clip32"><rect x="10945" y="5565" width="3660" height="2262"/></clipPath><clipPath id="clip33"><rect x="10945" y="5565" width="3660" height="2262"/></clipPath><clipPath id="clip34"><rect x="10945" y="5565" width="3660" height="2262"/></clipPath><clipPath id="clip35"><rect x="10945" y="5565" width="3660" height="2262"/></clipPath><clipPath id="clip36"><rect x="10945" y="5565" width="3660" height="2262"/></clipPath><clipPath id="clip37"><rect x="10945" y="5565" width="3660" height="2262"/></clipPath><clipPath id="clip38"><rect x="10945" y="5565" width="3660" height="2262"/></clipPath></defs><g clip-path="url(#clip0)" transform="translate(-10944 -5564)"><path d="M10945 5610.83C10945 5585.52 10965.5 5565 10990.8 5565L14560.2 5565C14585.5 5565 14606 5585.52 14606 5610.83L14606 7781.17C14606 7806.48 14585.5 7827 14560.2 7827L10990.8 7827C10965.5 7827 10945 7806.48 10945 7781.17Z" fill="#FFFFFF" fill-rule="evenodd"/><g clip-path="url(#clip1)"><rect x="11172" y="5741" width="2981" height="1831" fill="#FFFFFF"/></g><g clip-path="url(#clip2)"><path d="M11172 7511.25 14153 7511.25M11172 7450.24 14153 7450.24M11172 7389.24 14153 7389.24M11172 7328.24 14153 7328.24M11172 7205.24 14153 7205.24M11172 7144.23 14153 7144.23M11172 7083.23 14153 7083.23M11172 7022.23 14153 7022.23M11172 6900.23 14153 6900.23M11172 6839.22 14153 6839.22M11172 6778.22 14153 6778.22M11172 6717.22 14153 6717.22M11172 6595.22 14153 6595.22M11172 6534.21 14153 6534.21M11172 6473.21 14153 6473.21M11172 6412.21 14153 6412.21M11172 6290.21 14153 6290.21M11172 6229.2 14153 6229.2M11172 6168.2 14153 6168.2M11172 6107.2 14153 6107.2M11172 5985.2 14153 5985.2M11172 5924.19 14153 5924.19M11172 5863.19 14153 5863.19M11172 5802.19 14153 5802.19" stroke="#CCCCCC" stroke-width="2.29167" stroke-linejoin="round" stroke-miterlimit="10" stroke-opacity="0" fill="none"/></g><g clip-path="url(#clip3)"><path d="M11172 7267.24 14153 7267.24M11172 6961.23 14153 6961.23M11172 6656.22 14153 6656.22M11172 6351.21 14153 6351.21M11172 6046.2 14153 6046.2M11172 5741 14153 5741" stroke="#B7B7B7" stroke-width="2.29167" stroke-linejoin="round" stroke-miterlimit="10" fill="none"/></g><g clip-path="url(#clip4)"><path d="M11229.9 6315.71 11307.9 6315.71 11307.9 7571.5 11229.9 7571.5ZM11655.9 6105.7 11732.9 6105.7 11732.9 7571.5 11655.9 7571.5ZM12081.9 6049.7 12158.9 6049.7 12158.9 7571.5 12081.9 7571.5ZM12507.9 6065.7 12584.9 6065.7 12584.9 7571.5 12507.9 7571.5ZM12932.9 6084.7 13010.9 6084.7 13010.9 7571.5 12932.9 7571.5ZM13358.9 6054.7 13436.9 6054.7 13436.9 7571.5 13358.9 7571.5ZM13785 6135.7 13862 6135.7 13862 7571.5 13785 7571.5Z" stroke="#000000" stroke-width="3.4375" stroke-linejoin="round" stroke-miterlimit="10" fill="#4285F4"/></g><g clip-path="url(#clip5)"><path d="M11307.9 6256.71 11384.9 6256.71 11384.9 7571.5 11307.9 7571.5ZM11732.9 6096.7 11810.9 6096.7 11810.9 7571.5 11732.9 7571.5ZM12158.9 6050.7 12236.9 6050.7 12236.9 7571.5 12158.9 7571.5ZM12584.9 6067.7 12661.9 6067.7 12661.9 7571.5 12584.9 7571.5ZM13010.9 6085.7 13087.9 6085.7 13087.9 7571.5 13010.9 7571.5ZM13436.9 6055.7 13513.9 6055.7 13513.9 7571.5 13436.9 7571.5ZM13862 6119.7 13940 6119.7 13940 7571.5 13862 7571.5Z" stroke="#000000" stroke-width="3.4375" stroke-linejoin="round" stroke-miterlimit="10" fill="#EA4335"/></g><g clip-path="url(#clip6)"><path d="M11384.9 6235.7 11461.9 6235.7 11461.9 7571.5 11384.9 7571.5ZM11810.9 6097.7 11887.9 6097.7 11887.9 7571.5 11810.9 7571.5ZM12236.9 6050.7 12313.9 6050.7 12313.9 7571.5 12236.9 7571.5ZM12661.9 6068.7 12739.9 6068.7 12739.9 7571.5 12661.9 7571.5ZM13087.9 6083.7 13165.9 6083.7 13165.9 7571.5 13087.9 7571.5ZM13513.9 6051.7 13590.9 6051.7 13590.9 7571.5 13513.9 7571.5ZM13940 6126.7 14017 6126.7 14017 7571.5 13940 7571.5Z" stroke="#000000" stroke-width="3.4375" stroke-linejoin="round" stroke-miterlimit="10" fill="#FBBC04"/></g><g clip-path="url(#clip7)"><path d="M11461.9 6230.7 11539.9 6230.7 11539.9 7571.5 11461.9 7571.5ZM11887.9 6061.7 11965.9 6061.7 11965.9 7571.5 11887.9 7571.5ZM12313.9 6046.7 12390.9 6046.7 12390.9 7571.5 12313.9 7571.5ZM12739.9 6055.7 12816.9 6055.7 12816.9 7571.5 12739.9 7571.5ZM13165.9 6059.7 13242.9 6059.7 13242.9 7571.5 13165.9 7571.5ZM13590.9 6049.7 13668.9 6049.7 13668.9 7571.5 13590.9 7571.5ZM14017 6053.7 14095 6053.7 14095 7571.5 14017 7571.5Z" stroke="#000000" stroke-width="3.4375" stroke-linejoin="round" stroke-miterlimit="10" fill="#34A853"/></g><g clip-path="url(#clip8)"><path d="M0 0 0.000360892 1831" stroke="#000000" stroke-width="2.29167" stroke-linejoin="round" stroke-miterlimit="10" fill="none" fill-rule="evenodd" transform="matrix(1 0 0 -1 11172 7572)"/></g><g clip-path="url(#clip9)"><path d="M11172 7572 14153 7572" stroke="#000000" stroke-width="2.29167" stroke-linejoin="round" stroke-miterlimit="10" fill="none" fill-rule="evenodd"/></g><g clip-path="url(#clip10)"><text font-family="Arial,Arial_MSFontService,sans-serif" font-weight="400" font-size="46" transform="matrix(1 0 0 1 11107 7587)">0</text></g><g clip-path="url(#clip11)"><text font-family="Arial,Arial_MSFontService,sans-serif" font-weight="400" font-size="46" transform="matrix(1 0 0 1 11068.7 7282)">0.2</text></g><g clip-path="url(#clip12)"><text font-family="Arial,Arial_MSFontService,sans-serif" font-weight="400" font-size="46" transform="matrix(1 0 0 1 11068.7 6977)">0.4</text></g><g clip-path="url(#clip13)"><text font-family="Arial,Arial_MSFontService,sans-serif" font-weight="400" font-size="46" transform="matrix(1 0 0 1 11068.7 6672)">0.6</text></g><g clip-path="url(#clip14)"><text font-family="Arial,Arial_MSFontService,sans-serif" font-weight="400" font-size="46" transform="matrix(1 0 0 1 11068.7 6367)">0.8</text></g><g clip-path="url(#clip15)"><text font-family="Arial,Arial_MSFontService,sans-serif" font-weight="400" font-size="46" transform="matrix(1 0 0 1 11107 6061)">1</text></g><g clip-path="url(#clip16)"><text font-family="Arial,Arial_MSFontService,sans-serif" font-weight="400" font-size="46" transform="matrix(1 0 0 1 11068.7 5756)">1.2</text></g><g clip-path="url(#clip17)"><text font-family="Arial,Arial_MSFontService,sans-serif" font-weight="400" font-size="46" transform="matrix(1 0 0 1 11223.1 7642)">Gaussian Naive</text></g><g clip-path="url(#clip18)"><text font-family="Arial,Arial_MSFontService,sans-serif" font-weight="400" font-size="46" transform="matrix(1 0 0 1 11321.1 7694)">Bayes</text></g><g clip-path="url(#clip19)"><text font-family="Arial,Arial_MSFontService,sans-serif" font-weight="400" font-size="46" transform="matrix(1 0 0 1 11669.3 7642)">Decision Tree</text></g><g clip-path="url(#clip20)"><text font-family="Arial,Arial_MSFontService,sans-serif" font-weight="400" font-size="46" transform="matrix(1 0 0 1 12078.5 7642)">Random Forest</text></g><g clip-path="url(#clip21)"><text font-family="Arial,Arial_MSFontService,sans-serif" font-weight="400" font-size="46" transform="matrix(1 0 0 1 12509.4 7642)">Support Vector</text></g><g clip-path="url(#clip22)"><text font-family="Arial,Arial_MSFontService,sans-serif" font-weight="400" font-size="46" transform="matrix(1 0 0 1 12575.7 7694)">Machine</text></g><g clip-path="url(#clip23)"><text font-family="Arial,Arial_MSFontService,sans-serif" font-weight="400" font-size="46" transform="matrix(1 0 0 1 12888.1 7642)">Logistic Regression</text></g><g clip-path="url(#clip24)"><text font-family="Arial,Arial_MSFontService,sans-serif" font-weight="400" font-size="46" transform="matrix(1 0 0 1 13330.5 7642)">Gradient Boosting</text></g><g clip-path="url(#clip25)"><text font-family="Arial,Arial_MSFontService,sans-serif" font-weight="400" font-size="46" transform="matrix(1 0 0 1 13419.7 7694)">Classifier</text></g><g clip-path="url(#clip26)"><text font-family="Arial,Arial_MSFontService,sans-serif" font-weight="400" font-size="46" transform="matrix(1 0 0 1 13790.7 7642)">Artifical Neural</text></g><g clip-path="url(#clip27)"><text font-family="Arial,Arial_MSFontService,sans-serif" font-weight="400" font-size="46" transform="matrix(1 0 0 1 13855.7 7694)">Network</text></g><g clip-path="url(#clip28)"><text fill="#757575" font-family="Arial,Arial_MSFontService,sans-serif" font-weight="400" font-size="73" transform="matrix(1 0 0 1 12461.6 5669)">Phase 2 </text></g><g clip-path="url(#clip29)"><text fill="#757575" font-family="Arial,Arial_MSFontService,sans-serif" font-weight="400" font-size="73" transform="matrix(1 0 0 1 12751.1 5669)">-</text></g><g clip-path="url(#clip30)"><text fill="#757575" font-family="Arial,Arial_MSFontService,sans-serif" font-weight="400" font-size="73" transform="matrix(1 0 0 1 12795.9 5669)">accuracy</text></g><g clip-path="url(#clip31)"><rect x="14224.5" y="6630.5" width="23" height="23" stroke="#000000" stroke-width="3.4375" stroke-linejoin="round" stroke-miterlimit="10" fill="#4285F4"/></g><g clip-path="url(#clip32)"><text fill="#1A1A1A" font-family="Arial,Arial_MSFontService,sans-serif" font-weight="400" font-size="46" transform="matrix(1 0 0 1 14257.7 6657)">DoS/Normal=4</text></g><g clip-path="url(#clip33)"><rect x="14224.5" y="6708.5" width="23" height="23" stroke="#000000" stroke-width="3.4375" stroke-linejoin="round" stroke-miterlimit="10" fill="#EA4335"/></g><g clip-path="url(#clip34)"><text fill="#1A1A1A" font-family="Arial,Arial_MSFontService,sans-serif" font-weight="400" font-size="46" transform="matrix(1 0 0 1 14257.7 6735)">DoS/Normal=3</text></g><g clip-path="url(#clip35)"><rect x="14224.5" y="6786.5" width="23" height="22.9995" stroke="#000000" stroke-width="3.4375" stroke-linejoin="round" stroke-miterlimit="10" fill="#FBBC04"/></g><g clip-path="url(#clip36)"><text fill="#1A1A1A" font-family="Arial,Arial_MSFontService,sans-serif" font-weight="400" font-size="46" transform="matrix(1 0 0 1 14257.7 6813)">DoS/Normal=2</text></g><g clip-path="url(#clip37)"><rect x="14224.5" y="6864.5" width="23" height="23" stroke="#000000" stroke-width="3.4375" stroke-linejoin="round" stroke-miterlimit="10" fill="#34A853"/></g><g clip-path="url(#clip38)"><text fill="#1A1A1A" font-family="Arial,Arial_MSFontService,sans-serif" font-weight="400" font-size="46" transform="matrix(1 0 0 1 14257.7 6891)">DoS/Normal=1</text></g><path d="M10945 5610.83C10945 5585.52 10965.5 5565 10990.8 5565L14560.2 5565C14585.5 5565 14606 5585.52 14606 5610.83L14606 7781.17C14606 7806.48 14585.5 7827 14560.2 7827L10990.8 7827C10965.5 7827 10945 7806.48 10945 7781.17Z" stroke="#898989" stroke-width="2.29167" stroke-linejoin="round" stroke-miterlimit="10" fill="none" fill-rule="evenodd"/></g></svg>